<svg width="64" height="64" viewBox="0 0 64 64" fill="none"
     xmlns="http://www.w3.org/2000/svg">
  <rect x="8" y="10" width="48" height="44" rx="16"
        fill="url(#paint0_linear)" />
  
  <!-- inner dark circle (brain area) -->
  <circle cx="32" cy="30" r="12" fill="#020617" opacity="0.9"/>

  <!-- brain-ish / AI lines -->
  <path d="M28 24C29 22.8 30.4 22 32 22C35.3 22 38 24.7 38 28C38 31.3 35.3 34 32 34H30"
        stroke="#e5e7eb" stroke-width="1.6" stroke-linecap="round"/>
  <path d="M30 24C28.3 24.4 26 26 26 29C26 32 28.3 33.6 30 34"
        stroke="#e5e7eb" stroke-width="1.6" stroke-linecap="round"/>

  <!-- AI "nodes" -->
  <circle cx="27" cy="28" r="1.5" fill="#38bdf8"/>
  <circle cx="35" cy="27" r="1.5" fill="#38bdf8"/>
  <circle cx="33" cy="32" r="1.5" fill="#38bdf8"/>

  <!-- bottom scan lines -->
  <path d="M22 40H27" stroke="#e5e7eb" stroke-width="1.6" stroke-linecap="round" opacity="0.85"/>
  <path d="M30 40H36" stroke="#e5e7eb" stroke-width="1.6" stroke-linecap="round" opacity="0.85"/>
  <path d="M39 40H42" stroke="#e5e7eb" stroke-width="1.6" stroke-linecap="round" opacity="0.85"/>

  <defs>
    <linearGradient id="paint0_linear" x1="12" y1="12" x2="52" y2="54"
                    gradientUnits="userSpaceOnUse">
      <stop stop-color="#0ea5e9"/>
      <stop offset="1" stop-color="#1d4ed8"/>
    </linearGradient>
  </defs>
</svg>
